<?xml version="1.0" standalone="no"?>
<!DOCTYPE svg PUBLIC "-//W3C//DTD SVG 20010904//EN"
 "http://www.w3.org/TR/2001/REC-SVG-20010904/DTD/svg10.dtd">
<svg version="1.0" xmlns="http://www.w3.org/2000/svg"
 width="408.000000pt" height="408.000000pt" viewBox="0 0 408.000000 408.000000"
 preserveAspectRatio="xMidYMid meet">
<metadata>
Created by potrace 1.14, written by Peter Selinger 2001-2017
</metadata>
<g transform="translate(0.000000,408.000000) scale(0.100000,-0.100000)"
fill="#000000" stroke="none">
<path d="M1705 3270 c-16 -4 -66 -8 -110 -9 -108 -2 -125 -7 -125 -40 0 -15
-9 -52 -20 -84 -13 -38 -20 -82 -20 -135 0 -73 -16 -196 -40 -317 -12 -57 -24
-138 -45 -305 -8 -63 -21 -160 -29 -215 -8 -55 -15 -103 -16 -107 0 -8 260 -1
283 7 8 4 18 2 22 -4 3 -6 19 -11 36 -11 22 0 29 -5 29 -20 0 -12 -7 -20 -16
-20 -9 0 -40 -7 -69 -16 -46 -13 -61 -24 -101 -73 -63 -79 -93 -171 -101 -318
-4 -70 -2 -117 4 -125 6 -7 18 -37 27 -65 10 -29 22 -53 27 -53 5 0 9 -6 9
-14 0 -14 70 -76 87 -76 5 0 21 -10 36 -22 15 -13 60 -41 99 -63 101 -56 106
-69 107 -240 1 -77 5 -146 10 -153 6 -10 50 -15 169 -19 l160 -6 -5 60 c-3 33
-2 117 2 186 l7 126 32 15 c17 8 42 29 54 46 13 17 38 38 55 46 37 18 96 98
148 201 33 66 37 80 41 184 4 81 2 118 -8 138 -7 14 -20 43 -29 63 -8 20 -20
40 -25 43 -6 3 -10 15 -10 25 0 21 -115 140 -135 140 -27 0 -45 13 -45 31 0
22 8 23 155 9 97 -8 102 -8 151 17 49 25 51 27 43 57 -4 17 -12 63 -18 101
-40 271 -93 541 -146 745 -8 30 -15 76 -15 101 0 25 -5 71 -11 101 -11 55 -12
56 -55 67 -49 12 -551 13 -599 1z"/>
</g>
</svg>
